<svg width="1042.039" height="709.089" 
  xmlns="http://www.w3.org/2000/svg">
  <path fill="none" d="M-1-1h582v402H-1z"/>
  <g>
    <path fill="#3f3d56" d="M83.52 1h875v470.679h-875z"/>
    <path fill="#4285f4" d="M246.179 65.358h7.716v12.346h-7.716zM272.414 62.272h7.716v12.346h-7.716zM286.302 62.272h7.716v12.346h-7.716zM286.302 99.309h7.716v12.346h-7.716zM301.735 80.79h7.716v12.346h-7.716zM301.735 100.852h7.716v12.346h-7.716zM286.302 139.432h7.716v12.346h-7.716zM301.735 159.494h7.716v12.346h-7.716zM286.302 235.111h7.716v12.346h-7.716zM272.414 159.494h7.716v12.346h-7.716zM246.179 85.42h7.716v12.346h-7.716zM246.179 278.321h7.716v12.346h-7.716zM246.179 318.444h7.716v12.346h-7.716zM246.179 338.506h7.716v12.346h-7.716zM243.093 107.025h10.802v1.543h-10.802zM284.759 125.543h10.802v1.543h-10.802zM243.093 205.79h10.802v1.543h-10.802zM243.093 222.765h10.802v1.543h-10.802zM284.759 321.531h10.802v1.543h-10.802zM272.414 358.568h10.802v1.543h-10.802zM246.179 120.914V124h3.086v6.173h-3.086v3.086h7.716v-12.345h-7.716zM272.414 99.309v3.086h3.086v6.173h-3.086v3.086h7.716V99.309h-7.716zM301.735 119.37v3.087h3.086v6.173h-3.086v3.086h7.716V119.37h-7.716zM301.735 179.556v3.086h3.086v6.173h-3.086v3.086h7.716v-12.345h-7.716zM301.735 199.617v3.087h3.086v6.173h-3.086v3.086h7.716v-12.346h-7.716zM301.735 137.889v3.086h3.086v6.173h-3.086v3.087h7.716v-12.346h-7.716zM286.302 80.79v3.087h3.087v6.172h-3.087v3.087h7.717V80.79h-7.717zM286.302 179.556h7.716v12.346h-7.716zM286.302 216.593h7.716v12.346h-7.716zM286.302 198.074v3.086h3.087v6.173h-3.087v3.087h7.717v-12.346h-7.717zM272.414 119.37v3.087h3.086v6.173h-3.086v3.086h7.716V119.37h-7.716zM272.414 139.432v3.087h3.086v6.172h-3.086v3.087h7.716v-12.346h-7.716zM272.414 199.617h7.716v12.346h-7.716zM272.414 179.556v3.086h3.086v6.173h-3.086v3.086h7.716v-12.345h-7.716zM272.414 239.741h7.716v12.346h-7.716zM272.414 219.679v3.086h3.086v6.173h-3.086v3.087h7.716v-12.346h-7.716zM272.414 279.864h7.716v12.346h-7.716zM286.302 276.778h7.716v12.346h-7.716zM272.414 259.802v3.087h3.086v6.173h-3.086v3.086h7.716v-12.346h-7.716zM301.735 259.802v3.087h3.086v6.173h-3.086v3.086h7.716v-12.346h-7.716zM380.438 80.79h7.716v12.346h-7.716zM380.438 100.852h7.716v12.346h-7.716zM380.438 159.494h7.716v12.346h-7.716zM380.438 119.37v3.087h3.087v6.173h-3.087v3.086h7.716V119.37h-7.716zM380.438 179.556v3.086h3.087v6.173h-3.087v3.086h7.716v-12.345h-7.716zM380.438 199.617v3.087h3.087v6.173h-3.087v3.086h7.716v-12.346h-7.716zM380.438 137.889v3.086h3.087v6.173h-3.087v3.087h7.716v-12.346h-7.716zM380.438 259.802v3.087h3.087v6.173h-3.087v3.086h7.716v-12.346h-7.716zM272.414 319.988h7.716v12.346h-7.716zM286.302 296.84h7.716v12.346h-7.716zM272.414 372.457h7.716v12.346h-7.716zM286.302 335.42h7.716v12.346h-7.716zM272.414 299.926v3.086h3.086v6.173h-3.086v3.087h7.716v-12.346h-7.716zM272.414 394.062v3.086h3.086v6.173h-3.086v3.086h7.716v-12.345h-7.716zM357.29 62.272h7.716v12.346h-7.716zM357.29 159.494h7.716v12.346h-7.716zM357.29 358.568h10.802v1.543H357.29zM357.29 99.309v3.086h3.087v6.173h-3.087v3.086h7.716V99.309h-7.716zM357.29 119.37v3.087h3.087v6.173h-3.087v3.086h7.716V119.37h-7.716zM357.29 139.432v3.087h3.087v6.172h-3.087v3.087h7.716v-12.346h-7.716zM357.29 199.617h7.716v12.346h-7.716zM357.29 179.556v3.086h3.087v6.173h-3.087v3.086h7.716v-12.345h-7.716zM357.29 239.741h7.716v12.346h-7.716zM357.29 219.679v3.086h3.087v6.173h-3.087v3.087h7.716v-12.346h-7.716zM357.29 279.864h7.716v12.346h-7.716zM357.29 259.802v3.087h3.087v6.173h-3.087v3.086h7.716v-12.346h-7.716zM357.29 319.988h7.716v12.346h-7.716zM357.29 372.457h7.716v12.346h-7.716zM357.29 299.926v3.086h3.087v6.173h-3.087v3.087h7.716v-12.346h-7.716zM357.29 394.062v3.086h3.087v6.173h-3.087v3.086h7.716v-12.345h-7.716zM394.327 62.272h7.716v12.346h-7.716zM394.327 159.494h7.716v12.346h-7.716zM394.327 358.568h10.802v1.543h-10.802zM394.327 99.309v3.086h3.087v6.173h-3.087v3.086h7.716V99.309h-7.716zM394.327 119.37v3.087h3.087v6.173h-3.087v3.086h7.716V119.37h-7.716zM394.327 139.432v3.087h3.087v6.172h-3.087v3.087h7.716v-12.346h-7.716zM394.327 199.617h7.716v12.346h-7.716zM394.327 179.556v3.086h3.087v6.173h-3.087v3.086h7.716v-12.345h-7.716zM394.327 239.741h7.716v12.346h-7.716zM394.327 219.679v3.086h3.087v6.173h-3.087v3.087h7.716v-12.346h-7.716zM394.327 279.864h7.716v12.346h-7.716zM394.327 259.802v3.087h3.087v6.173h-3.087v3.086h7.716v-12.346h-7.716zM394.327 319.988h7.716v12.346h-7.716zM394.327 372.457h7.716v12.346h-7.716zM394.327 299.926v3.086h3.087v6.173h-3.087v3.087h7.716v-12.346h-7.716zM394.327 394.062v3.086h3.087v6.173h-3.087v3.086h7.716v-12.345h-7.716zM286.302 372.457v3.086h3.087v6.173h-3.087v3.086h7.717v-12.345h-7.717zM286.302 392.519v3.086h3.087v6.173h-3.087v3.086h7.717v-12.345h-7.717zM246.179 159.494v3.086h3.086v6.173h-3.086v3.087h7.716v-12.346h-7.716zM246.179 238.198v3.086h3.086v6.173h-3.086v3.086h7.716v-12.345h-7.716zM246.179 258.259v3.087h3.086v6.173h-3.086v3.086h7.716v-12.346h-7.716zM246.179 298.383v3.086h3.086v6.173h-3.086v3.086h7.716v-12.345h-7.716zM246.179 355.481v3.087h3.086v6.173h-3.086v3.086h7.716v-12.346h-7.716zM246.179 372.457v3.086h3.086v6.173h-3.086v3.086h7.716v-12.345h-7.716zM326.426 65.358h7.716v12.346h-7.716zM326.426 85.42h7.716v12.346h-7.716zM323.34 107.025h10.802v1.543H323.34zM323.34 205.79h10.802v1.543H323.34zM323.34 222.765h10.802v1.543H323.34zM326.426 120.914V124h3.086v6.173h-3.086v3.086h7.716v-12.345h-7.716zM326.426 159.494v3.086h3.086v6.173h-3.086v3.087h7.716v-12.346h-7.716zM326.426 238.198v3.086h3.086v6.173h-3.086v3.086h7.716v-12.345h-7.716zM414.389 199.617h7.716v12.346h-7.716zM414.389 219.679h7.716v12.346h-7.716zM411.302 241.284h10.802v1.543h-10.802zM411.302 340.049h10.802v1.543h-10.802zM411.302 357.025h10.802v1.543h-10.802zM414.389 255.173v3.086h3.086v6.173h-3.086v3.087h7.716v-12.346h-7.716zM414.389 293.753v3.087h3.086v6.172h-3.086v3.087h7.716v-12.346h-7.716zM414.389 372.457v3.086h3.086v6.173h-3.086v3.086h7.716v-12.345h-7.716zM439.08 65.358h7.716v12.346h-7.716zM465.315 62.272h7.716v12.346h-7.716zM479.204 62.272h7.716v12.346h-7.716zM479.204 99.309h7.716v12.346h-7.716zM494.636 80.79h7.716v12.346h-7.716zM494.636 100.852h7.716v12.346h-7.716zM479.204 139.432h7.716v12.346h-7.716zM494.636 159.494h7.716v12.346h-7.716zM479.204 235.111h7.716v12.346h-7.716zM465.315 159.494h7.716v12.346h-7.716zM439.08 85.42h7.716v12.346h-7.716zM439.08 278.321h7.716v12.346h-7.716zM439.08 318.444h7.716v12.346h-7.716zM439.08 338.506h7.716v12.346h-7.716zM435.994 107.025h10.802v1.543h-10.802zM477.66 125.543h10.802v1.543H477.66zM435.994 205.79h10.802v1.543h-10.802zM435.994 222.765h10.802v1.543h-10.802zM477.66 321.531h10.802v1.543H477.66zM465.315 358.568h10.802v1.543h-10.802zM439.08 120.914V124h3.087v6.173h-3.087v3.086h7.716v-12.345h-7.716zM465.315 99.309v3.086h3.086v6.173h-3.086v3.086h7.716V99.309h-7.716zM494.636 119.37v3.087h3.086v6.173h-3.086v3.086h7.716V119.37h-7.716zM494.636 179.556v3.086h3.086v6.173h-3.086v3.086h7.716v-12.345h-7.716zM494.636 199.617v3.087h3.086v6.173h-3.086v3.086h7.716v-12.346h-7.716zM494.636 137.889v3.086h3.086v6.173h-3.086v3.087h7.716v-12.346h-7.716zM479.204 80.79v3.087h3.086v6.172h-3.086v3.087h7.716V80.79h-7.716zM479.204 179.556h7.716v12.346h-7.716zM479.204 216.593h7.716v12.346h-7.716zM479.204 198.074v3.086h3.086v6.173h-3.086v3.087h7.716v-12.346h-7.716zM465.315 119.37v3.087h3.086v6.173h-3.086v3.086h7.716V119.37h-7.716zM465.315 139.432v3.087h3.086v6.172h-3.086v3.087h7.716v-12.346h-7.716zM465.315 199.617h7.716v12.346h-7.716zM465.315 179.556v3.086h3.086v6.173h-3.086v3.086h7.716v-12.345h-7.716zM465.315 239.741h7.716v12.346h-7.716zM465.315 219.679v3.086h3.086v6.173h-3.086v3.087h7.716v-12.346h-7.716zM465.315 279.864h7.716v12.346h-7.716zM479.204 276.778h7.716v12.346h-7.716zM465.315 259.802v3.087h3.086v6.173h-3.086v3.086h7.716v-12.346h-7.716zM494.636 259.802v3.087h3.086v6.173h-3.086v3.086h7.716v-12.346h-7.716zM573.34 80.79h7.716v12.346h-7.716zM573.34 100.852h7.716v12.346h-7.716zM573.34 159.494h7.716v12.346h-7.716zM573.34 119.37v3.087h3.086v6.173h-3.086v3.086h7.716V119.37h-7.716zM573.34 179.556v3.086h3.086v6.173h-3.086v3.086h7.716v-12.345h-7.716zM573.34 199.617v3.087h3.086v6.173h-3.086v3.086h7.716v-12.346h-7.716zM573.34 137.889v3.086h3.086v6.173h-3.086v3.087h7.716v-12.346h-7.716zM573.34 259.802v3.087h3.086v6.173h-3.086v3.086h7.716v-12.346h-7.716zM465.315 319.988h7.716v12.346h-7.716zM479.204 296.84h7.716v12.346h-7.716zM465.315 372.457h7.716v12.346h-7.716zM479.204 335.42h7.716v12.346h-7.716zM465.315 299.926v3.086h3.086v6.173h-3.086v3.087h7.716v-12.346h-7.716zM465.315 394.062v3.086h3.086v6.173h-3.086v3.086h7.716v-12.345h-7.716zM550.191 62.272h7.716v12.346h-7.716zM550.191 159.494h7.716v12.346h-7.716zM550.191 358.568h10.802v1.543h-10.802zM550.191 99.309v3.086h3.087v6.173h-3.087v3.086h7.716V99.309h-7.716zM550.191 119.37v3.087h3.087v6.173h-3.087v3.086h7.716V119.37h-7.716zM550.191 139.432v3.087h3.087v6.172h-3.087v3.087h7.716v-12.346h-7.716zM550.191 199.617h7.716v12.346h-7.716zM550.191 179.556v3.086h3.087v6.173h-3.087v3.086h7.716v-12.345h-7.716zM550.191 239.741h7.716v12.346h-7.716zM550.191 219.679v3.086h3.087v6.173h-3.087v3.087h7.716v-12.346h-7.716zM550.191 279.864h7.716v12.346h-7.716zM550.191 259.802v3.087h3.087v6.173h-3.087v3.086h7.716v-12.346h-7.716zM550.191 319.988h7.716v12.346h-7.716zM550.191 372.457h7.716v12.346h-7.716zM550.191 299.926v3.086h3.087v6.173h-3.087v3.087h7.716v-12.346h-7.716zM550.191 394.062v3.086h3.087v6.173h-3.087v3.086h7.716v-12.345h-7.716zM587.228 62.272h7.716v12.346h-7.716zM587.228 159.494h7.716v12.346h-7.716zM587.228 358.568h10.802v1.543h-10.802zM587.228 99.309v3.086h3.087v6.173h-3.087v3.086h7.716V99.309h-7.716zM587.228 119.37v3.087h3.087v6.173h-3.087v3.086h7.716V119.37h-7.716zM587.228 139.432v3.087h3.087v6.172h-3.087v3.087h7.716v-12.346h-7.716zM587.228 199.617h7.716v12.346h-7.716zM587.228 179.556v3.086h3.087v6.173h-3.087v3.086h7.716v-12.345h-7.716zM587.228 239.741h7.716v12.346h-7.716zM587.228 219.679v3.086h3.087v6.173h-3.087v3.087h7.716v-12.346h-7.716zM587.228 279.864h7.716v12.346h-7.716zM587.228 259.802v3.087h3.087v6.173h-3.087v3.086h7.716v-12.346h-7.716zM587.228 319.988h7.716v12.346h-7.716zM587.228 372.457h7.716v12.346h-7.716zM587.228 299.926v3.086h3.087v6.173h-3.087v3.087h7.716v-12.346h-7.716zM587.228 394.062v3.086h3.087v6.173h-3.087v3.086h7.716v-12.345h-7.716zM479.204 372.457v3.086h3.086v6.173h-3.086v3.086h7.716v-12.345h-7.716zM479.204 392.519v3.086h3.086v6.173h-3.086v3.086h7.716v-12.345h-7.716zM439.08 159.494v3.086h3.087v6.173h-3.087v3.087h7.716v-12.346h-7.716zM439.08 238.198v3.086h3.087v6.173h-3.087v3.086h7.716v-12.345h-7.716zM439.08 258.259v3.087h3.087v6.173h-3.087v3.086h7.716v-12.346h-7.716zM439.08 298.383v3.086h3.087v6.173h-3.087v3.086h7.716v-12.345h-7.716zM439.08 355.481v3.087h3.087v6.173h-3.087v3.086h7.716v-12.346h-7.716zM439.08 372.457v3.086h3.087v6.173h-3.087v3.086h7.716v-12.345h-7.716zM519.327 65.358h7.716v12.346h-7.716zM519.327 85.42h7.716v12.346h-7.716zM516.241 107.025h10.802v1.543h-10.802zM516.241 205.79h10.802v1.543h-10.802zM516.241 222.765h10.802v1.543h-10.802zM519.327 120.914V124h3.087v6.173h-3.087v3.086h7.716v-12.345h-7.716zM519.327 159.494v3.086h3.087v6.173h-3.087v3.087h7.716v-12.346h-7.716zM519.327 238.198v3.086h3.087v6.173h-3.087v3.086h7.716v-12.345h-7.716zM607.29 199.617h7.716v12.346h-7.716zM607.29 219.679h7.716v12.346h-7.716zM604.204 241.284h10.802v1.543h-10.802zM604.204 340.049h10.802v1.543h-10.802zM604.204 357.025h10.802v1.543h-10.802zM607.29 255.173v3.086h3.087v6.173h-3.087v3.087h7.716v-12.346h-7.716zM607.29 293.753v3.087h3.087v6.172h-3.087v3.087h7.716v-12.346h-7.716zM607.29 372.457v3.086h3.087v6.173h-3.087v3.086h7.716v-12.345h-7.716zM631.981 65.358h7.716v12.346h-7.716zM658.216 62.272h7.716v12.346h-7.716zM672.105 62.272h7.716v12.346h-7.716zM672.105 99.309h7.716v12.346h-7.716zM687.537 80.79h7.716v12.346h-7.716zM687.537 100.852h7.716v12.346h-7.716zM672.105 139.432h7.716v12.346h-7.716zM687.537 159.494h7.716v12.346h-7.716zM672.105 235.111h7.716v12.346h-7.716zM658.216 159.494h7.716v12.346h-7.716zM631.981 85.42h7.716v12.346h-7.716zM631.981 278.321h7.716v12.346h-7.716zM631.981 318.444h7.716v12.346h-7.716zM631.981 338.506h7.716v12.346h-7.716zM628.895 107.025h10.802v1.543h-10.802zM670.562 125.543h10.802v1.543h-10.802zM628.895 205.79h10.802v1.543h-10.802zM628.895 222.765h10.802v1.543h-10.802zM670.562 321.531h10.802v1.543h-10.802zM658.216 358.568h10.802v1.543h-10.802zM631.981 120.914V124h3.087v6.173h-3.087v3.086h7.717v-12.345h-7.717zM658.216 99.309v3.086h3.086v6.173h-3.086v3.086h7.716V99.309h-7.716zM687.537 119.37v3.087h3.086v6.173h-3.086v3.086h7.716V119.37h-7.716zM687.537 179.556v3.086h3.086v6.173h-3.086v3.086h7.716v-12.345h-7.716zM687.537 199.617v3.087h3.086v6.173h-3.086v3.086h7.716v-12.346h-7.716zM687.537 137.889v3.086h3.086v6.173h-3.086v3.087h7.716v-12.346h-7.716zM672.105 80.79v3.087h3.086v6.172h-3.086v3.087h7.716V80.79h-7.716zM672.105 179.556h7.716v12.346h-7.716zM672.105 216.593h7.716v12.346h-7.716zM672.105 198.074v3.086h3.086v6.173h-3.086v3.087h7.716v-12.346h-7.716zM658.216 119.37v3.087h3.086v6.173h-3.086v3.086h7.716V119.37h-7.716zM658.216 139.432v3.087h3.086v6.172h-3.086v3.087h7.716v-12.346h-7.716zM658.216 199.617h7.716v12.346h-7.716zM658.216 179.556v3.086h3.086v6.173h-3.086v3.086h7.716v-12.345h-7.716zM658.216 239.741h7.716v12.346h-7.716zM658.216 219.679v3.086h3.086v6.173h-3.086v3.087h7.716v-12.346h-7.716zM658.216 279.864h7.716v12.346h-7.716zM672.105 276.778h7.716v12.346h-7.716zM658.216 259.802v3.087h3.086v6.173h-3.086v3.086h7.716v-12.346h-7.716zM687.537 259.802v3.087h3.086v6.173h-3.086v3.086h7.716v-12.346h-7.716zM766.241 80.79h7.716v12.346h-7.716zM766.241 100.852h7.716v12.346h-7.716zM766.241 159.494h7.716v12.346h-7.716zM766.241 119.37v3.087h3.086v6.173h-3.086v3.086h7.716V119.37h-7.716zM766.241 179.556v3.086h3.086v6.173h-3.086v3.086h7.716v-12.345h-7.716zM766.241 199.617v3.087h3.086v6.173h-3.086v3.086h7.716v-12.346h-7.716zM766.241 137.889v3.086h3.086v6.173h-3.086v3.087h7.716v-12.346h-7.716zM766.241 259.802v3.087h3.086v6.173h-3.086v3.086h7.716v-12.346h-7.716zM658.216 319.988h7.716v12.346h-7.716zM672.105 296.84h7.716v12.346h-7.716zM658.216 372.457h7.716v12.346h-7.716zM672.105 335.42h7.716v12.346h-7.716zM658.216 299.926v3.086h3.086v6.173h-3.086v3.087h7.716v-12.346h-7.716zM658.216 394.062v3.086h3.086v6.173h-3.086v3.086h7.716v-12.345h-7.716zM743.093 62.272h7.716v12.346h-7.716zM743.093 159.494h7.716v12.346h-7.716zM743.093 358.568h10.802v1.543h-10.802zM743.093 99.309v3.086h3.086v6.173h-3.086v3.086h7.716V99.309h-7.716zM743.093 119.37v3.087h3.086v6.173h-3.086v3.086h7.716V119.37h-7.716zM743.093 139.432v3.087h3.086v6.172h-3.086v3.087h7.716v-12.346h-7.716zM743.093 199.617h7.716v12.346h-7.716zM743.093 179.556v3.086h3.086v6.173h-3.086v3.086h7.716v-12.345h-7.716zM743.093 239.741h7.716v12.346h-7.716zM743.093 219.679v3.086h3.086v6.173h-3.086v3.087h7.716v-12.346h-7.716zM743.093 279.864h7.716v12.346h-7.716zM743.093 259.802v3.087h3.086v6.173h-3.086v3.086h7.716v-12.346h-7.716zM743.093 319.988h7.716v12.346h-7.716zM743.093 372.457h7.716v12.346h-7.716zM743.093 299.926v3.086h3.086v6.173h-3.086v3.087h7.716v-12.346h-7.716zM743.093 394.062v3.086h3.086v6.173h-3.086v3.086h7.716v-12.345h-7.716zM780.13 62.272h7.716v12.346h-7.716zM780.13 159.494h7.716v12.346h-7.716zM780.13 358.568h10.802v1.543H780.13zM780.13 99.309v3.086h3.086v6.173h-3.086v3.086h7.716V99.309h-7.716zM780.13 119.37v3.087h3.086v6.173h-3.086v3.086h7.716V119.37h-7.716zM780.13 139.432v3.087h3.086v6.172h-3.086v3.087h7.716v-12.346h-7.716zM780.13 199.617h7.716v12.346h-7.716zM780.13 179.556v3.086h3.086v6.173h-3.086v3.086h7.716v-12.345h-7.716zM780.13 239.741h7.716v12.346h-7.716zM780.13 219.679v3.086h3.086v6.173h-3.086v3.087h7.716v-12.346h-7.716zM780.13 279.864h7.716v12.346h-7.716zM780.13 259.802v3.087h3.086v6.173h-3.086v3.086h7.716v-12.346h-7.716zM780.13 319.988h7.716v12.346h-7.716zM780.13 372.457h7.716v12.346h-7.716zM780.13 299.926v3.086h3.086v6.173h-3.086v3.087h7.716v-12.346h-7.716zM780.13 394.062v3.086h3.086v6.173h-3.086v3.086h7.716v-12.345h-7.716zM672.105 372.457v3.086h3.086v6.173h-3.086v3.086h7.716v-12.345h-7.716zM672.105 392.519v3.086h3.086v6.173h-3.086v3.086h7.716v-12.345h-7.716zM631.981 159.494v3.086h3.087v6.173h-3.087v3.087h7.717v-12.346h-7.717zM631.981 238.198v3.086h3.087v6.173h-3.087v3.086h7.717v-12.345h-7.717zM631.981 258.259v3.087h3.087v6.173h-3.087v3.086h7.717v-12.346h-7.717zM631.981 298.383v3.086h3.087v6.173h-3.087v3.086h7.717v-12.345h-7.717zM631.981 355.481v3.087h3.087v6.173h-3.087v3.086h7.717v-12.346h-7.717zM631.981 372.457v3.086h3.087v6.173h-3.087v3.086h7.717v-12.345h-7.717zM712.228 65.358h7.716v12.346h-7.716zM712.228 85.42h7.716v12.346h-7.716zM709.142 107.025h10.802v1.543h-10.802zM709.142 205.79h10.802v1.543h-10.802zM709.142 222.765h10.802v1.543h-10.802zM712.228 120.914V124h3.087v6.173h-3.087v3.086h7.716v-12.345h-7.716zM712.228 159.494v3.086h3.087v6.173h-3.087v3.087h7.716v-12.346h-7.716zM712.228 238.198v3.086h3.087v6.173h-3.087v3.086h7.716v-12.345h-7.716zM800.191 199.617h7.716v12.346h-7.716zM800.191 219.679h7.716v12.346h-7.716zM797.105 241.284h10.802v1.543h-10.802zM797.105 340.049h10.802v1.543h-10.802zM797.105 357.025h10.802v1.543h-10.802zM800.191 255.173v3.086h3.087v6.173h-3.087v3.087h7.716v-12.346h-7.716zM800.191 293.753v3.087h3.087v6.172h-3.087v3.087h7.716v-12.346h-7.716zM800.191 372.457v3.086h3.087v6.173h-3.087v3.086h7.716v-12.345h-7.716z"/>
    <path fill="#2f2e41" d="M473.5 403.34v52l7 32s-1 20 0 26-1 16-7 16-9 15-9 15-2 6-7 7-5 0-5 0l-4 10-83 55 16 40s25-9 27-12 19 4 19-3 3-25 9-26 56-24 56-24 26-29 28-40 11-42 11-42l25 42v84l-4 45 44-6s-4-28 0-32 10-52 6-58 2-33 0-37-1-33-6-41-35-90-35-90l-88-13z"/>
    <path fill="#2f2e41" d="M558.5 678.34s-15 25-5 28 29 0 31 0 38 1 38 1 24-5 24-12-15-7-20-8-36-13-36-13l-32 4zM370.093 617.468s-28.903-3.828-27.681 6.54 11.527 26.612 12.322 28.447c.538 1.243 6.854 16.978 10.875 27.006a58.476 58.476 0 0 0 12.835 19.652c3.931 3.929 8.216 7.08 11.026 5.862 6.424-2.782.462-16.547-.608-21.532s-2.38-38.202-2.38-38.202l-16.39-27.773z"/>
    <path fill="#8985a8" d="M571 237.84l32-74s-3-7-10-6c0 0-9.5-24.5-27.5-24.5 0 0-27-15-35 0 0 0-17 15-16 29s2 24 2 24-16 2-13 10 4 8 0 11l-4 3s-83 75-37 185l4 17v16s101 1 101 0-2-7 2-11 4-10 4-10-4-20-2-26 3-32-1-38-2-54-2-54l9-17-3-10-3-10-.5-14.5z"/>
    <path opacity=".1" d="M562.5 438.34s-12-33-11-39-2-18-2-18l-4-81s17-72-21-84c0 0-9.615 4.195-17.494 17.697-7.79 3.47-17.244 12.252-19.506 34.303-4 39 14 139 23 156s15 29 15 29l9.407-4.181.593 1.18 27-12z"/>
    <circle fill="#f2f2f2" r="3" cy="225.84" cx="568"/>
    <path fill="#3f3d56" d="M567 225.84h2v47h-2z"/>
    <path fill="#ffb8b8" d="M532 441.84l8 17s18-6 18-9-8-16-8-16l-18 8z"/>
    <path fill="#8985a8" d="M520.5 216.34s-23 10-27 49 14 139 23 156 15 29 15 29l27-12s-12-33-11-39-2-18-2-18l-4-81s17-72-21-84z"/>
  </g>
</svg>