<svg width="634.717" height="699.768" 
  xmlns="http://www.w3.org/2000/svg">
  <path fill="none" d="M-1-1h636.717v701.768H-1z"/>
  <g>
    <path fill="#535461" d="M88 17.063h444v657H88z"/>
    <path fill="#6c63ff" d="M411 691.063l-323-17v-657l323-17v691z"/>
    <circle fill="#535461" r="4" cy="377.063" cx="384"/>
    <path fill="#535461" d="M384 377.66l2.773 4.803 2.772 4.802h-11.09l2.772-4.802L384 377.66z"/>
    <path fill="#6c63ff" d="M425 691.063L405.217 691 406 .063h19v691z"/>
    <path fill="#fff" d="M425.217 691h-20l1-691h19v691z" opacity=".1"/>
    <circle opacity=".1" r="13" cy="348.063" cx="384"/>
    <circle fill="#535461" r="13" cy="346.063" cx="384"/>
    <path opacity=".1" stroke-width="2" stroke-miterlimit="10" stroke="#000" fill="none" d="M140.819 16.108v661.048M197.819 12.108v667.048M254.819 9.108V683M311.819 6.108v681.048M368.819 3.108V688"/>
    <ellipse fill="#2f2e41" ry="37" rx="39.5" cy="95.323" cx="551.217"/>
    <path fill="#ffb8b8" d="M436.217 325.823l-10 14s-48 10-30 25 44-14 44-14l14-18-18-7z"/>
    <path fill="#6c63ff" d="M488.217 166.823s-13 0-16 18-6 78-6 78-42 55-35 62 15 20 20 18 48-61 48-61l-11-115z"/>
    <path opacity=".1" d="M488.217 166.823s-13 0-16 18-6 78-6 78-42 55-35 62 15 20 20 18 48-61 48-61l-11-115z"/>
    <path fill="#ffb8b8" d="M528.217 115.823s-1 39-13 41-8 15-8 15 39 23 65 0l5-12s-18-13-10-31l-39-13z"/>
    <path fill="#2f2e41" d="M461.217 355.823s-59 110-37 144 55 104 60 104 33-14 31-23-32-76-40-82-4-22-3-23 34-54 34-54-1 84 3 97-1 106 4 110 28 11 32 5 16-97 8-118l15-144-107-16z"/>
    <path fill="#2f2e41" d="M515.217 622.823l-25 46s-36 26-11 30 40-6 40-6l22-16v-46l-26-8z"/>
    <path fill="#2f2e41" d="M481.217 596.823l13 31s5 13 0 16-19 21-10 23a29.3 29.3 0 0 0 5.496.547 55.566 55.566 0 0 0 40.397-16.44l8.107-8.107s-27.77-63.948-27.385-63.474-29.615 17.474-29.615 17.474z"/>
    <circle fill="#ffb8b8" r="34" cy="105.823" cx="553.217"/>
    <path fill="#6c63ff" d="M572.717 153.323l-10.5 10.5s-32 12-47 0c0 0 5.5-11.5 5.5-10.5s-43.5 7.5-47.5 25.5 3 49 3 49-28 132-17 135 114 28 113 9 8-97 8-97l35-67s-5-22-17-29-25.5-25.5-25.5-25.5z"/>
    <path fill="#ffb8b8" d="M528.217 348.823l-13 8s-50 34-24 40 41-24 41-24l10-12-14-12z"/>
    <path opacity=".1" d="M602.217 201.823l9 9s6 84-6 101-67 63-70 60-22-18-18-20 57.183-57.569 57.183-57.569l-4.183-77.43 32-15z"/>
    <path fill="#6c63ff" d="M606.217 198.823l9 9s6 84-6 101-67 63-70 60-22-18-18-20 57.183-57.569 57.183-57.569l-4.183-77.43 32-15z"/>
    <path fill="#2f2e41" d="M539.156 57.529s-11.558-4.203-27.318 4.728l8.405 2.101s-12.608 1.05-14.184 17.862h5.779s-3.677 14.71 0 18.912l2.364-4.466 6.83 13.66 1.575-6.83 3.152 1.05 2.102-11.032s5.253 7.88 9.456 8.406v-6.83s11.557 13.134 15.235 12.609l-5.254-7.355 7.355 1.576-3.152-5.254 18.912 5.254-4.202-5.254 13.133 4.203 6.304 2.627s8.931-20.488-3.677-34.673-30.995-17.336-42.815-11.294z"/>
  </g>
</svg>